# xmcd CD database file
#
# Track frame offsets:
#	150
#	20979
#	44138
#	73140
#	101403
#	122636
#	154138
#	178882
#	196253
#	217041
#	240501
#	270238
#	287243
#	313489
#	333069
#
# Disc length: 4745 seconds
#
# Revision: 1
# Processed by: cddbd v1.4PL0 Copyright (c) Steve Scherf et al.
# Submitted via: jetAudio 5
#
DISCID=e912870f
DTITLE=Bill Bairley - MP3.com
DYEAR=1900
DGENRE=
TTITLE0=mixed up world
TTITLE1=Going home (new)
TTITLE2=El Camino
TTITLE3=Blind
TTITLE4=Quark
TTITLE5=Promise of the Coming Day
TTITLE6=I Play for the Blues
TTITLE7=It's All I Can Do
TTITLE8=King and Queen
TTITLE9=Heavy on my Mind
TTITLE10=The Rain Tree
TTITLE11=Cat's Big Night Out
TTITLE12=Edgewater Drive
TTITLE13=Still Called the Blues
TTITLE14=Going Home
EXTD=
EXTT0=
EXTT1=
EXTT2=
EXTT3=
EXTT4=
EXTT5=
EXTT6=
EXTT7=
EXTT8=
EXTT9=
EXTT10=
EXTT11=
EXTT12=
EXTT13=
EXTT14=
PLAYORDER=
